<?xml version="1.0" standalone="no"?>
<!DOCTYPE svg PUBLIC "-//W3C//DTD SVG 20010904//EN"
 "http://www.w3.org/TR/2001/REC-SVG-20010904/DTD/svg10.dtd">
<svg version="1.0" xmlns="http://www.w3.org/2000/svg"
 width="1324.000000pt" height="333.000000pt" viewBox="0 0 1324.000000 333.000000"
 preserveAspectRatio="xMidYMid meet">

<g transform="translate(0.000000,333.000000) scale(0.100000,-0.100000)"
fill="#000000" stroke="none">
<path d="M5367 3045 c-529 -86 -918 -448 -1038 -965 -29 -124 -36 -383 -15
-515 87 -530 473 -926 1004 -1032 120 -24 393 -23 517 1 270 52 468 154 668
346 l72 69 -167 167 -167 168 -73 -60 c-194 -160 -333 -219 -538 -231 -374
-21 -678 218 -766 604 -26 111 -23 301 5 408 92 349 371 575 708 575 214 0
397 -72 582 -228 52 -45 65 -52 75 -41 12 13 269 310 304 352 14 15 13 20 -9
43 -45 48 -213 169 -294 211 -104 53 -202 88 -323 113 -129 28 -418 36 -545
15z"/>
<path d="M10280 3045 c-469 -78 -838 -379 -994 -813 -51 -142 -69 -261 -70
-447 -1 -187 12 -269 65 -429 177 -530 683 -868 1260 -842 227 11 391 51 559
137 110 56 239 151 325 238 l60 61 -167 167 -166 166 -73 -62 c-203 -171 -403
-243 -634 -228 -346 23 -613 281 -676 651 -17 98 -6 292 21 386 60 210 201
385 380 474 126 62 212 79 360 73 63 -3 142 -12 175 -21 118 -32 266 -116 396
-226 l37 -30 161 185 c88 102 161 189 161 194 0 15 -108 109 -184 161 -142 95
-281 153 -458 191 -124 27 -417 34 -538 14z"/>
<path d="M7655 3043 c-86 -12 -201 -49 -295 -95 -90 -45 -117 -64 -190 -137
-140 -140 -200 -292 -200 -500 1 -325 137 -514 466 -645 50 -20 197 -65 327
-100 129 -36 272 -79 317 -96 173 -67 238 -156 209 -291 -15 -69 -80 -137
-164 -170 -55 -22 -75 -24 -220 -23 -145 0 -169 3 -250 27 -126 39 -274 114
-384 197 l-94 71 -31 -38 c-17 -20 -86 -103 -154 -183 l-122 -145 42 -39 c58
-52 205 -149 301 -198 100 -50 261 -104 385 -129 126 -25 370 -35 484 -20 381
51 631 245 709 549 24 96 26 299 4 387 -68 268 -300 438 -749 551 -364 92
-501 155 -542 251 -18 41 -18 134 -1 176 20 47 86 101 153 127 46 18 80 23
159 23 196 1 374 -60 585 -200 35 -23 67 -39 71 -35 4 4 66 92 139 196 122
175 130 189 113 202 -10 8 -54 38 -98 68 -230 155 -486 227 -788 225 -84 -1
-165 -4 -182 -6z"/>
<path d="M2805 3008 c-7 -18 -245 -575 -529 -1236 -284 -662 -516 -1208 -516
-1213 0 -5 110 -9 263 -9 l263 0 115 283 116 282 533 0 534 0 115 -282 116
-283 273 0 c149 0 272 1 272 3 0 1 -98 232 -218 512 l-218 510 -607 3 c-334 1
-607 5 -607 8 0 3 133 325 295 714 162 389 295 715 295 724 0 14 -27 16 -241
16 l-240 0 -14 -32z"/>
</g>
</svg>
